<svg width="571" height="369" viewBox="0 0 571 369" fill="none" xmlns="http://www.w3.org/2000/svg">
<path d="M95.9717 83.667L38.0312 2.2373H153.912L95.9717 83.667Z" fill="#D40000"/>
<path d="M95.9717 84.563L38.0312 165.993H153.912L95.9717 84.563Z" fill="#D40000"/>
<path d="M141.387 84.5619L38.7051 166.886V2.2373L141.387 84.5619Z" fill="white"/>
<path d="M359.948 83.667L302.008 2.2373H417.889L359.948 83.667Z" fill="#D40000"/>
<path d="M359.948 84.563L302.008 165.993H417.889L359.948 84.563Z" fill="#D40000"/>
<path d="M405.362 84.5619L302.68 166.886V2.2373L405.362 84.5619Z" fill="white"/>
<path d="M242.483 166.886H213.881V15.0913H242.483V166.886Z" fill="white"/>
<path d="M228.112 79.8955L158.834 2.2373H297.533L228.112 79.8955Z" fill="#D40000"/>
<path d="M537.796 108.498L487.462 82.3246L537.796 56.1507L570.681 38.9252C556.14 15.4359 530.19 0 500.884 0C455.248 0 418.336 36.9118 418.336 82.3246C418.336 127.737 455.248 164.649 500.884 164.649C530.19 164.649 556.14 149.213 570.681 125.724L537.796 108.498Z" fill="#D40000"/>
<path d="M89.7079 203.575L0.000976562 368.224H179.415L89.7079 203.575Z" fill="white"/>
<path d="M89.7078 335.601L17.8975 279.636H161.518L89.7078 335.601Z" fill="#D40000"/>
<path d="M280.757 283.777C294.179 275.734 302.904 262.777 302.904 248.032C302.904 223.458 278.743 203.575 248.766 203.575C218.789 203.575 194.405 223.458 194.405 248.032C194.405 262.777 203.13 275.734 216.552 283.777C203.13 292.266 194.405 305.894 194.405 321.309C194.405 347.224 218.789 368 248.766 368C278.743 368 302.904 347.224 302.904 321.309C302.904 305.894 294.179 292.266 280.757 283.777Z" fill="#D40000"/>
<path d="M241.83 368.224H190.153V203.575H241.83V368.224Z" fill="white"/>
<path d="M456.812 368.224H410.505V203.575H456.812V368.224Z" fill="white"/>
<path d="M359.5 368.224H313.192V203.575H359.5V368.224Z" fill="white"/>
<path d="M385.003 334.989L313.192 279.023H456.813L385.003 334.989Z" fill="#D40000"/>
</svg>
