<svg width="2613" height="1631" viewBox="0 0 2613 1631" fill="none" xmlns="http://www.w3.org/2000/svg">
<g opacity="0.84">
<mask id="path-1-inside-1_336_50" fill="white">
<path d="M1156.88 0L1417.62 192.295L620.243 1273.49L359.501 1081.2L1156.88 0Z"/>
</mask>
<path d="M1156.88 0L1417.62 192.295L620.243 1273.49L359.501 1081.2L1156.88 0Z" fill="url(#paint0_linear_336_50)"/>
<path d="M1417.62 192.295L1413.38 189.172L616.008 1270.37L620.243 1273.49L624.477 1276.61L1421.85 195.419L1417.62 192.295ZM359.501 1081.2L363.735 1084.32L1161.11 3.12313L1156.88 0L1152.64 -3.12313L355.266 1078.07L359.501 1081.2Z" fill="#0E0E0E" mask="url(#path-1-inside-1_336_50)"/>
</g>
<g opacity="0.84">
<mask id="path-3-inside-2_336_50" fill="white">
<path d="M1583.51 125L1832.69 308.768L1070.68 1342.02L821.5 1158.25L1583.51 125Z"/>
</mask>
<path d="M1583.51 125L1832.69 308.768L1070.68 1342.02L821.5 1158.25L1583.51 125Z" fill="url(#paint1_linear_336_50)"/>
<path d="M1832.69 308.768L1828.65 305.784L1066.63 1339.03L1070.68 1342.02L1074.73 1345L1836.74 311.753L1832.69 308.768ZM821.5 1158.25L825.547 1161.23L1587.56 127.985L1583.51 125L1579.47 122.015L817.453 1155.27L821.5 1158.25Z" fill="#0E0E0E" mask="url(#path-3-inside-2_336_50)"/>
</g>
<g opacity="0.84">
<mask id="path-5-inside-3_336_50" fill="white">
<path d="M2073.51 125L2322.69 308.768L1560.68 1342.02L1311.5 1158.25L2073.51 125Z"/>
</mask>
<path d="M2073.51 125L2322.69 308.768L1560.68 1342.02L1311.5 1158.25L2073.51 125Z" fill="url(#paint2_linear_336_50)"/>
<path d="M2322.69 308.768L2318.65 305.784L1556.63 1339.03L1560.68 1342.02L1564.73 1345L2326.74 311.753L2322.69 308.768ZM1311.5 1158.25L1315.55 1161.23L2077.56 127.985L2073.51 125L2069.47 122.015L1307.45 1155.27L1311.5 1158.25Z" fill="#0E0E0E" mask="url(#path-5-inside-3_336_50)"/>
</g>
<g opacity="0.84">
<mask id="path-7-inside-4_336_50" fill="white">
<path d="M2363.52 413L2612.7 596.768L1850.68 1630.02L1601.5 1446.25L2363.52 413Z"/>
</mask>
<path d="M2363.52 413L2612.7 596.768L1850.68 1630.02L1601.5 1446.25L2363.52 413Z" fill="url(#paint3_linear_336_50)"/>
<path d="M2612.7 596.768L2608.65 593.784L1846.63 1627.03L1850.68 1630.02L1854.73 1633L2616.74 599.753L2612.7 596.768ZM1601.5 1446.25L1605.55 1449.23L2367.56 415.985L2363.52 413L2359.47 410.015L1597.45 1443.27L1601.5 1446.25Z" fill="#0E0E0E" mask="url(#path-7-inside-4_336_50)"/>
</g>
<path d="M253.701 122.483L982.226 294.412L728.526 1369.43L1.18841e-05 1197.5L253.701 122.483Z" fill="white"/>
<defs>
<linearGradient id="paint0_linear_336_50" x1="1287.25" y1="96.1477" x2="489.872" y2="1177.34" gradientUnits="userSpaceOnUse">
<stop offset="0.149038" stop-color="#070707"/>
<stop offset="0.783654" stop-color="#191919"/>
</linearGradient>
<linearGradient id="paint1_linear_336_50" x1="1708.1" y1="216.884" x2="946.089" y2="1250.13" gradientUnits="userSpaceOnUse">
<stop offset="0.149038" stop-color="#070707"/>
<stop offset="0.783654" stop-color="#191919"/>
</linearGradient>
<linearGradient id="paint2_linear_336_50" x1="2198.1" y1="216.884" x2="1436.09" y2="1250.13" gradientUnits="userSpaceOnUse">
<stop offset="0.149038" stop-color="#070707"/>
<stop offset="0.783654" stop-color="#191919"/>
</linearGradient>
<linearGradient id="paint3_linear_336_50" x1="2488.11" y1="504.884" x2="1726.09" y2="1538.13" gradientUnits="userSpaceOnUse">
<stop offset="0.149038" stop-color="#070707"/>
<stop offset="0.783654" stop-color="#191919"/>
</linearGradient>
</defs>
</svg>
